<svg width="1935" height="1208" viewBox="0 0 1935 1208" fill="none" xmlns="http://www.w3.org/2000/svg">
<path d="M1197.41 1190.49C1205.4 1195.63 1214.07 1199.61 1223.18 1202.32C1243.08 1208.64 1264.27 1209.71 1284.71 1205.42C1312.71 1199.98 1337.49 1182.98 1357.29 1163.25C1367.61 1153 1378.3 1143.06 1389.06 1133.24C1416.44 1108.27 1444.51 1083.82 1472.72 1059.91C1499.11 1037.31 1525.71 1014.92 1552.52 992.738C1566.08 981.472 1580.01 970.568 1593.37 959.038L1593.96 958.544C1599.73 953.833 1603 943.884 1603 936.769C1602.94 928.613 1599.69 920.802 1593.96 914.993C1588.16 909.25 1580.32 906.019 1572.15 906L1563.97 907.087C1558.82 908.503 1554.13 911.227 1550.35 914.993C1528.13 933.178 1506.03 951.494 1484.04 969.942C1442.43 1004.76 1401.03 1039.85 1360.62 1076.02C1350.65 1084.91 1340.76 1093.93 1330.93 1103.06C1320.24 1112.95 1310.21 1123.98 1298.66 1133.04L1304.93 1128.2C1296.92 1134.45 1288.14 1139.64 1278.8 1143.65L1286.16 1140.55C1278.75 1143.62 1271 1145.74 1263.06 1146.88L1271.25 1145.76C1263.43 1146.78 1255.51 1146.78 1247.69 1145.76L1255.9 1146.84C1248.12 1145.76 1240.5 1143.67 1233.24 1140.65L1240.63 1143.75C1236.33 1142.07 1232.22 1139.93 1228.39 1137.36C1224.83 1135.29 1220.89 1133.96 1216.81 1133.42C1212.73 1132.88 1208.58 1133.16 1204.6 1134.23C1196.89 1136.44 1190.31 1141.51 1186.2 1148.39C1184.13 1151.94 1182.79 1155.87 1182.26 1159.94C1181.73 1164.01 1182.01 1168.15 1183.09 1172.11C1185.57 1179.68 1190.56 1186.18 1197.25 1190.53L1197.41 1190.49Z" fill="white"/>
<path d="M986.084 1190.49C994.058 1195.62 1002.71 1199.6 1011.8 1202.32C1031.65 1208.64 1052.81 1209.71 1073.2 1205.42C1101.15 1199.98 1125.87 1182.98 1145.79 1163.25C1156.13 1153 1166.76 1143.06 1177.5 1133.24C1204.85 1108.27 1232.84 1083.82 1260.99 1059.91C1287.33 1037.31 1313.87 1014.92 1340.63 992.738C1354.19 981.472 1368.05 970.568 1381.39 959.038L1381.98 958.544C1387.74 953.833 1391 943.884 1391 936.769C1390.94 928.613 1387.7 920.802 1381.98 914.993C1376.19 909.25 1368.37 906.019 1360.22 906L1352.05 907.087C1346.92 908.504 1342.25 911.228 1338.49 914.993C1316.3 933.178 1294.24 951.494 1272.31 969.942C1230.8 1004.76 1189.45 1039.85 1149.12 1076.02C1139.17 1084.91 1129.3 1093.93 1119.49 1103.06C1108.82 1112.95 1098.81 1123.98 1087.32 1133.04L1093.54 1128.2C1085.61 1134.51 1076.89 1139.75 1067.6 1143.81L1074.94 1140.72C1067.56 1143.78 1059.81 1145.91 1051.9 1147.04L1060.06 1145.92C1052.27 1146.94 1044.38 1146.94 1036.59 1145.92L1044.75 1147.01C1036.99 1145.92 1029.4 1143.84 1022.17 1140.82L1029.51 1143.91C1025.21 1142.24 1021.12 1140.1 1017.29 1137.52C1013.75 1135.46 1009.82 1134.12 1005.76 1133.58C1001.69 1133.05 997.552 1133.32 993.59 1134.39C985.877 1136.6 979.295 1141.66 975.186 1148.56C973.126 1152.11 971.792 1156.03 971.261 1160.11C970.729 1164.18 971.012 1168.31 972.092 1172.28C974.559 1179.85 979.543 1186.35 986.216 1190.69L986.084 1190.49Z" fill="white"/>
<path d="M1755 623C1778.75 623 1798 603.972 1798 580.5C1798 557.028 1778.75 538 1755 538C1731.25 538 1712 557.028 1712 580.5C1712 603.972 1731.25 623 1755 623Z" fill="white"/>
<path d="M1173.16 712.697L1158.62 704.493L1118.69 681.856L1059.57 648.312L986.664 606.662L906.374 560.828C878.985 545.188 851.617 529.492 824.272 513.742C798.157 498.716 772.042 483.647 745.927 468.534C723.176 455.353 700.469 442.096 677.805 428.762C660.22 418.416 642.634 407.971 625.048 397.426C614.695 391.133 604.275 384.905 594.284 378.051C593.097 377.228 591.877 376.371 590.723 375.481L596.955 380.292L596.625 380.028C590.03 374.756 583.667 371 574.83 371C566.665 371.056 558.845 374.295 553.035 380.028C547.265 385.812 544.017 393.642 544 401.809C544.33 409.387 546.77 418.614 553.035 423.556C562.624 430.916 572.632 437.716 583.007 443.92C598.604 453.574 614.365 462.932 630.159 472.29C651.658 485.009 673.211 497.64 694.819 510.183C720.296 525.011 745.817 539.784 771.383 554.502C798.64 570.208 825.942 585.892 853.288 601.555C880.634 617.217 907.859 632.77 934.963 648.213L1010.8 691.378L1074.17 727.36L1119.55 753.095C1126.7 757.148 1133.82 761.266 1141.04 765.253L1141.93 765.748C1149.14 769.872 1157.66 771.052 1165.71 769.043C1173.42 766.826 1180 761.761 1184.11 754.874C1191.82 740.277 1188.03 721.198 1173.06 712.73L1173.16 712.697Z" fill="white"/>
<path d="M1013.63 842.715L998.431 833.805L956.861 809.848L895.017 774.407C869.699 759.777 844.425 745.136 819.195 730.485C791.196 714.293 763.241 698.068 735.329 681.811C706.759 665.223 678.188 648.58 649.618 631.883C622.454 615.999 595.323 600.093 568.225 584.166C544.621 570.284 521.062 556.325 497.546 542.29C479.349 531.433 461.283 520.543 443.086 509.29C432.405 502.691 421.625 496.091 411.306 489.095C410.086 488.237 408.867 487.379 407.68 486.488L413.944 491.306L413.581 491.042C406.988 485.762 400.658 482 391.791 482C383.629 482.063 375.813 485.306 370 491.042C364.253 496.846 361.019 504.682 361 512.854C361.33 520.477 363.77 529.684 370 534.667C379.787 542.162 389.977 549.114 400.526 555.489C416.746 565.587 433.13 575.454 449.514 585.189C471.887 598.609 494.326 611.951 516.83 625.217C543.203 640.859 569.708 656.434 596.345 671.944C624.74 688.532 653.124 705.097 681.496 721.641C709.869 738.185 738.44 754.761 767.208 771.371C793.339 786.55 819.503 801.708 845.7 816.844L911.929 855.123L959.333 882.446C966.784 886.736 974.201 891.092 981.684 895.316L982.641 895.877C989.855 899.942 998.361 901.053 1006.38 898.979C1012.22 897.365 1017.45 894.064 1021.43 889.488C1025.41 884.911 1027.95 879.263 1028.74 873.249C1029.53 867.234 1028.53 861.121 1025.86 855.673C1023.2 850.225 1018.99 845.683 1013.76 842.616L1013.63 842.715Z" fill="white"/>
<path d="M864.916 974.516L849.048 965.205L805.666 939.715L741.203 901.811L662.026 855.191L574.932 803.717C545.153 786.107 515.385 768.498 485.628 750.889C457.322 734.072 429.049 717.222 400.81 700.339C376.221 685.636 351.676 670.877 327.175 656.063C308.239 644.573 289.336 632.951 270.531 621.395C259.447 614.494 248.296 607.66 237.541 600.231C236.288 599.372 235.034 598.481 233.813 597.556L240.049 602.377L239.652 602.047C233.054 596.764 226.721 593 217.846 593C209.665 593 201.819 596.253 196.034 602.042C190.25 607.831 187 615.684 187 623.871C187.363 631.498 189.771 640.743 196.039 645.696C206.06 653.37 216.477 660.512 227.248 667.091C244.04 677.69 261.03 688.057 277.987 698.391C301.278 712.567 324.613 726.654 347.992 740.654C375.572 757.206 403.163 773.715 430.765 790.18L519.839 843.007C549.442 860.617 579.067 878.138 608.714 895.571L690.926 944.041L759.975 984.652L809.46 1013.71C817.246 1018.26 824.965 1022.92 832.817 1027.38L833.806 1027.97C847.728 1036.13 868.215 1031.64 876.001 1016.91C879.972 1009.8 881.035 1001.43 878.968 993.558C876.901 985.683 871.864 978.917 864.916 974.681V974.516Z" fill="white"/>
<path d="M8.73275 764.597C34.311 784.769 63.6142 800.656 91.4009 817.499C142.887 848.658 194.581 879.498 246.485 910.02C306.409 945.508 366.433 980.864 426.555 1016.09C477.096 1045.69 527.638 1075.25 578.179 1104.79C601.252 1118.3 624.325 1132.24 647.662 1145.33C663.78 1154.36 680.327 1162.73 696.643 1171.4C716.42 1181.88 736.955 1192.96 758.512 1199.19C780.934 1205.3 804.446 1206.29 827.303 1202.09C873.977 1194.54 916.3 1166.36 953.349 1138.44C1002.79 1101.03 1048.94 1059.33 1096.37 1019.38C1177.39 951.188 1266.42 890.837 1341.01 815.423C1367.38 788.79 1397.05 756.324 1405.62 718.551C1409.97 699.104 1408.65 678.569 1397.47 661.463C1385.18 642.576 1366.33 629.161 1346.98 618.185C1324.17 605.886 1300.68 594.882 1276.64 585.224C1247.7 572.93 1220.37 561.756 1189.65 547.616C1157.54 533.209 1126.47 516.59 1096.67 497.878C1088.95 492.934 1081.38 487.792 1073.96 482.453L1068.35 478.333C1067.43 477.64 1062.09 473.85 1065.91 476.52C1069.74 479.19 1063.7 474.74 1062.62 473.982C1060.54 472.334 1058.46 470.686 1056.42 468.906C1042.21 457.13 1029.03 444.162 1017.03 430.144C1015.51 428.364 1014 426.551 1012.51 424.705C1011.89 423.947 1011.29 423.123 1010.64 422.365C1008.43 419.728 1012.51 424.64 1012.38 424.607C1009.75 423.717 1005.2 414.718 1003.62 412.279C998.559 404.71 993.969 396.84 989.87 388.712C988.782 386.603 987.76 384.46 986.772 382.318L985.519 379.549C983.805 375.89 984.464 379.978 986.211 381.263C983.706 379.45 982.157 370.617 981.201 367.749C978.132 358.413 975.763 348.861 974.114 339.172C973.916 338.15 973.818 337.03 973.587 335.876C972.763 332.349 973.983 338.777 973.95 338.711C973.36 336.206 973.083 333.637 973.126 331.064C972.664 325.856 972.401 320.648 972.368 315.44C972.335 310.233 972.367 305.552 972.697 300.41C972.862 297.642 973.092 294.873 973.356 292.137C973.356 290.918 973.62 289.731 973.719 288.544C974.477 280.667 972.961 292.829 973.719 288.248C975.559 276.756 978.046 265.378 981.168 254.166C982.948 247.937 984.959 241.773 987.134 235.675C988.123 232.94 989.145 230.237 990.167 227.567L992.342 222.095C993.034 220.381 994.056 218.173 992.738 221.14C999.437 205.861 1007.58 191.259 1017.06 177.532C1018.22 175.851 1019.44 174.236 1020.66 172.489C1021.35 171.501 1025.73 165.667 1022.5 169.951C1019.27 174.236 1023.19 169.127 1023.95 168.205C1025.42 166.403 1026.94 164.59 1028.5 162.766C1033.95 156.46 1039.66 150.406 1045.64 144.605C1051.44 138.968 1057.54 133.596 1063.8 128.487C1064.89 127.597 1070.4 123.378 1066.37 126.377C1062.35 129.377 1068.25 124.993 1069.08 124.4C1072.37 121.862 1076 119.423 1079.56 117.016C1093.79 107.497 1108.74 99.11 1124.29 91.9333L1130.35 89.1975C1134.51 87.3517 1133.88 88.835 1130.02 89.1975C1134.21 88.7031 1139.45 85.44 1143.47 83.9568C1151.71 80.9244 1159.95 78.2216 1168.49 75.7825C1177.43 73.2115 1186.43 71.0142 1195.49 69.1903C1199.77 68.3004 1204.05 67.4434 1208.34 66.6853C1211.34 66.1579 1221.2 66.2568 1223.4 64.3121C1223.4 64.3121 1216.81 65.1032 1220.31 64.7406L1223.37 64.378C1225.74 64.0814 1228.15 63.8507 1230.52 63.587C1235.37 63.1255 1240.18 62.697 1245.03 62.4004C1254.92 61.7412 1264.8 61.4445 1274.49 61.4445C1284.18 61.4445 1293.84 61.8071 1303.47 62.4663C1308.54 62.8179 1313.62 63.2464 1318.7 63.7518L1325.29 64.4769C1328.42 64.8395 1335.18 64.9054 1328.06 64.7736C1338.14 64.9713 1349.09 68.0697 1358.94 70.1462C1368.8 72.2227 1379.05 74.6618 1388.97 77.3976C1399.5 80.2981 1409.91 83.5392 1420.22 87.121C1425.06 88.8349 1429.91 90.5819 1434.72 92.4277C1437.31 93.4165 1439.92 94.4383 1442.53 95.493L1445.83 96.8444C1451.33 99.0198 1442.8 95.4601 1446.29 97.0092C1467.15 106.145 1487.48 116.457 1507.17 127.893C1517.59 134.024 1527.77 140.474 1537.73 147.241C1542.44 150.538 1547.12 153.834 1551.77 157.13L1558.36 161.843C1559.78 162.931 1561.19 164.019 1562.64 165.139C1566.44 167.908 1559.09 162.305 1562.81 165.139C1606.15 199.385 1643.24 239.004 1678.18 281.557C1687.98 293.467 1697.67 305.431 1707.25 317.451C1711.93 323.34 1716.6 329.273 1721.26 335.25L1724.16 338.974C1723.73 338.447 1722.01 336.173 1724.16 338.974C1726.3 341.776 1729.13 345.567 1731.64 348.863C1747.26 369.397 1762.49 390.261 1777.06 411.488C1800.76 445.362 1821.89 480.96 1840.28 517.984C1841.17 519.797 1850.53 540.563 1850.53 540.563C1850.53 540.563 1847.8 533.97 1849.48 538.058L1850.47 540.464C1851.22 542.343 1851.95 544.188 1852.67 546.067C1854.09 549.693 1855.44 553.351 1856.76 557.043C1861.54 570.388 1865.5 584.016 1868.6 597.848C1870.01 604.441 1871.2 611.033 1872.22 617.625C1872.65 620.295 1872.62 626.063 1871.99 615.614C1871.99 616.966 1872.32 618.317 1872.48 619.669C1872.85 622.965 1873.14 625.964 1873.41 629.095C1874.35 641.301 1874.51 653.555 1873.87 665.781C1873.56 671.56 1873.1 677.328 1872.48 683.085L1871.99 687.568C1871.79 688.985 1871.03 694.918 1871.99 688.557C1872.95 682.195 1871.99 687.535 1871.99 688.919L1871.2 694.028C1869.29 705.927 1866.82 717.727 1864.05 729.428C1861.01 742.217 1857.78 755.006 1854.16 767.597C1852.97 771.585 1851.65 775.54 1850.2 779.429C1849.41 781.605 1848.55 783.714 1847.76 786.022C1845.92 790.801 1850.3 780.517 1847.34 786.945C1843.28 795.811 1838.96 804.513 1834.15 812.984C1823.78 830.946 1812.23 848.201 1799.57 864.633C1796.28 868.984 1802.64 860.81 1797.83 866.841L1792.78 872.049C1788.96 876.752 1785.09 881.421 1781.18 886.058C1773.95 894.54 1766.58 902.868 1759.06 911.042C1727.98 944.959 1694.59 976.733 1660.41 1007.49C1631.14 1033.85 1601.08 1059.3 1571.41 1084.98C1560.31 1094.57 1549.2 1104.13 1538.45 1114.08C1533.8 1118.37 1529.39 1122.91 1524.74 1127.26C1523.65 1128.25 1516.66 1133.86 1520.59 1130.99C1518.28 1132.64 1515.94 1134.29 1513.53 1135.67C1511.13 1137.05 1508.09 1138.8 1505.26 1140.19L1501.7 1141.87C1507.6 1139.2 1502.13 1141.5 1500.78 1141.87C1495.8 1143.44 1490.74 1144.74 1485.61 1145.76C1483.8 1146.15 1479.88 1146.05 1486.97 1145.76C1485.84 1145.76 1484.76 1145.99 1483.67 1146.05C1481.49 1146.05 1479.32 1146.35 1477.08 1146.41C1472.23 1146.41 1467.42 1146.22 1462.61 1145.85C1461.66 1145.63 1460.68 1145.53 1459.71 1145.56C1459.71 1145.56 1466.3 1146.74 1463.2 1145.99C1461.19 1145.52 1459.08 1145.29 1457.07 1144.9C1450.99 1143.65 1445.01 1141.99 1439.17 1139.92L1435.87 1138.74C1431.06 1137.02 1439.17 1140.22 1440.19 1140.61L1438.38 1139.76C1423.88 1132.74 1404.4 1135.34 1396.22 1150.83C1388.9 1164.64 1391.77 1185.47 1407.26 1192.96C1438.88 1208.14 1474.77 1211.97 1508.89 1203.8C1548.77 1193.91 1575.24 1163.06 1605 1137.19C1668.65 1081.88 1733.55 1027.89 1791.6 966.581C1823.44 932.961 1853.83 897.099 1878.45 857.81C1897.52 826.75 1911.58 792.88 1920.11 757.445C1933.46 704.707 1939.66 652.201 1930.99 598.31C1919.95 529.587 1885.34 465.412 1848.09 407.566C1818.43 361.651 1785.47 318.011 1751.65 275.261C1715.59 229.907 1679.13 184.784 1635.56 146.22C1563.34 82.1439 1476.48 33.3619 1381.75 12.267C1301.46 -5.66364 1215.46 -4.97146 1136.98 21.2324C1066.14 44.8982 1002.4 88.2746 960.699 150.966C936.008 188.551 919.935 231.131 913.63 275.657C906.676 322.186 913.398 369.732 932.978 412.51C965.346 483.31 1032.09 534.069 1098.54 570.722C1141.39 594.421 1186.49 613.571 1231.51 632.457L1246.71 638.885C1253.83 641.917 1260.95 644.949 1268 648.081C1279.97 653.354 1291.83 658.793 1303.47 664.759C1313 669.529 1322.21 674.901 1331.06 680.844C1332.11 681.569 1337.81 686.546 1334.62 683.283C1331.42 680.02 1336.4 684.865 1337.45 685.821C1338.51 686.777 1340.12 688.293 1341.41 689.611C1342.2 690.402 1342.96 691.358 1343.78 692.149C1346.85 695.05 1342.23 690.864 1342.13 689.809C1342.13 690.864 1344.6 693.369 1345.2 694.424C1345.79 695.478 1345.92 695.808 1346.32 696.434C1348.89 700.258 1344.7 693.764 1345.06 693.138C1345.34 694.575 1345.78 695.978 1346.35 697.324C1348.1 701.115 1345.72 694.358 1346.02 693.435C1345.97 694.351 1346.04 695.27 1346.22 696.171C1346.22 697.72 1346.22 699.236 1346.22 700.752C1346.22 705.433 1343.65 704.048 1346.65 698.61C1345.63 701.855 1344.91 705.187 1344.5 708.564C1343.94 710.245 1343.22 711.86 1342.72 713.541C1342.46 714.398 1346.02 706.751 1342.99 712.717C1341.21 716.277 1339.43 719.77 1337.42 723.198C1335.41 726.626 1332.9 730.45 1330.46 733.944C1329.38 735.559 1328.25 737.24 1327.17 738.657C1326.49 739.834 1325.7 740.939 1324.79 741.953C1325.55 741.788 1328.85 736.877 1325.88 740.503C1296.22 776.76 1260.32 807.908 1224.26 837.869C1181.41 873.401 1137.41 907.284 1094.09 942.157C1046.63 980.391 1001.28 1021.1 954.272 1059.93C949.064 1064.32 943.812 1068.59 938.516 1072.75C935.747 1074.99 932.978 1077.2 930.177 1079.34L926.649 1082.14C929.946 1079.54 926.023 1082.6 924.671 1083.62C914.585 1091.3 904.302 1098.75 893.787 1105.77C883.898 1112.37 873.482 1118.79 862.901 1124.5C857.924 1127.13 853.013 1129.64 847.805 1131.98C845.037 1133.23 841.608 1134.38 846.651 1132.54C843.817 1133.59 841.015 1134.75 838.18 1135.83C833.335 1137.55 828.457 1139.13 823.479 1140.32C821.502 1140.81 810.295 1144.57 808.911 1143.25C808.911 1143.25 817.019 1142.49 810.922 1142.89L807.823 1143.15C805.416 1143.35 803.01 1143.45 800.604 1143.48C799.121 1143.48 786.199 1143.02 786.232 1142.79C786.265 1142.56 794.243 1144.21 788.276 1143.05L785.211 1142.49C782.805 1142.03 780.398 1141.47 778.025 1140.88C773.167 1139.56 768.382 1137.98 763.687 1136.16C763.094 1135.9 759.567 1134.35 763.061 1135.9C766.555 1137.45 761.973 1135.37 761.05 1134.94L753.931 1131.65C748.327 1128.95 742.745 1126.17 737.186 1123.31C711.476 1110.13 685.93 1096.51 660.978 1081.94C622.743 1059.66 584.541 1037.35 546.371 1015C488.38 981.051 430.444 947.046 372.563 912.987C313.716 878.356 254.945 843.582 196.251 808.666C154.588 783.813 112.858 759.06 71.7881 733.284C66.4483 729.988 61.109 726.692 55.8351 723.099C53.9893 721.88 52.1106 720.627 50.2648 719.342L48.1218 717.826C44.0675 715.123 53.0993 721.715 52.506 721.122C39.8816 711.234 21.0936 707.938 8.93071 721.122C-1.25445 732.23 -4.58358 754.083 8.93071 764.696L8.73275 764.597Z" fill="white"/>
<path d="M1752.12 560.96C1752.12 560.96 1735.92 526.12 1686 525.161C1686 525.161 1792.29 511.212 1797 580L1752.12 560.96Z" fill="white"/>
</svg>
