<svg width="111" height="31" viewBox="0 0 111 31" fill="none" xmlns="http://www.w3.org/2000/svg">
<path d="M30.6828 30.5471C30.8872 30.679 31.1093 30.7812 31.3423 30.8508C31.8515 31.013 32.394 31.0404 32.917 30.9303C33.6339 30.7907 34.268 30.3543 34.7746 29.8476C35.0389 29.5845 35.3125 29.3291 35.5878 29.077C36.2886 28.4359 37.0071 27.8083 37.7291 27.1942C38.4046 26.6139 39.0854 26.039 39.7716 25.4695C40.1187 25.1802 40.475 24.9002 40.817 24.6042L40.8321 24.5915C40.9799 24.4705 41.0635 24.2151 41.0635 24.0324C41.0619 23.823 40.9789 23.6224 40.8321 23.4733C40.6836 23.3258 40.4831 23.2429 40.274 23.2424L40.0646 23.2703C39.9328 23.3066 39.8127 23.3766 39.7159 23.4733C39.1473 23.9402 38.5816 24.4105 38.0187 24.8842C36.954 25.7782 35.8943 26.6791 34.8599 27.6078C34.6049 27.8362 34.3516 28.0677 34.1 28.3022C33.8264 28.556 33.5697 28.8394 33.2742 29.072L33.4346 28.9476C33.2297 29.1081 33.0049 29.2415 32.7659 29.3443L32.9541 29.2648C32.7647 29.3435 32.5661 29.3981 32.3631 29.4272L32.5725 29.3985C32.3724 29.4247 32.1697 29.4247 31.9696 29.3985L32.1799 29.4264C31.9805 29.3984 31.7856 29.345 31.5998 29.2673L31.7889 29.3469C31.6788 29.3039 31.5737 29.2489 31.4757 29.1828C31.3845 29.1298 31.2838 29.0954 31.1793 29.0816C31.0748 29.0678 30.9686 29.0749 30.8669 29.1024C30.6694 29.1593 30.501 29.2893 30.3957 29.4661C30.3429 29.5573 30.3086 29.6581 30.295 29.7627C30.2814 29.8672 30.2886 29.9734 30.3163 30.0751C30.3796 30.2696 30.5074 30.4364 30.6786 30.548L30.6828 30.5471Z" fill="#66B3FF"/>
<path d="M25.2584 30.5471C25.463 30.6788 25.685 30.781 25.9179 30.8508C26.4272 31.013 26.9697 31.0404 27.4926 30.9303C28.2095 30.7907 28.8436 30.3543 29.3545 29.8476C29.6196 29.5845 29.8923 29.3291 30.1676 29.077C30.8693 28.4359 31.587 27.8083 32.3089 27.1942C32.9844 26.6139 33.6653 26.039 34.3515 25.4695C34.6994 25.1802 35.0548 24.9002 35.3968 24.6042L35.412 24.5915C35.5598 24.4705 35.6434 24.2151 35.6434 24.0324C35.6418 23.823 35.5588 23.6224 35.412 23.4733C35.2635 23.3258 35.063 23.2429 34.8539 23.2424L34.6445 23.2703C34.5129 23.3067 34.3931 23.3766 34.2966 23.4733C33.7275 23.9402 33.1618 24.4105 32.5994 24.8842C31.5346 25.7782 30.4741 26.6791 29.4398 27.6078C29.1848 27.8362 28.9315 28.0677 28.6798 28.3022C28.4063 28.556 28.1496 28.8394 27.8549 29.072L28.0145 28.9476C27.8109 29.1095 27.5873 29.2443 27.3491 29.3485L27.5374 29.269C27.3479 29.3478 27.1494 29.4023 26.9463 29.4314L27.1557 29.4027C26.9559 29.4289 26.7535 29.4289 26.5537 29.4027L26.7631 29.4306C26.564 29.4027 26.3693 29.3493 26.1839 29.2716L26.3722 29.3511C26.262 29.3081 26.157 29.2531 26.0589 29.187C25.9679 29.1341 25.8673 29.0997 25.763 29.0859C25.6586 29.0721 25.5526 29.0792 25.451 29.1066C25.2531 29.1633 25.0843 29.2933 24.9789 29.4704C24.9261 29.5615 24.8919 29.6623 24.8783 29.7669C24.8646 29.8714 24.8719 29.9776 24.8996 30.0794C24.9628 30.2738 25.0907 30.4407 25.2618 30.5522L25.2584 30.5471Z" fill="#66B3FF"/>
<path d="M44.9543 15.9968C45.5591 15.9968 46.0494 15.5056 46.0494 14.8997C46.0494 14.2938 45.5591 13.8027 44.9543 13.8027C44.3494 13.8027 43.8591 14.2938 43.8591 14.8997C43.8591 15.5056 44.3494 15.9968 44.9543 15.9968Z" fill="#66B3FF"/>
<path d="M30.0554 18.2831L29.683 18.0725L28.6605 17.4914L27.1466 16.6303L25.2797 15.5612L23.2236 14.3846C22.5222 13.9831 21.8214 13.5802 21.1211 13.1759C20.4524 12.7902 19.7836 12.4034 19.1149 12.0154C18.5323 11.6771 17.9508 11.3367 17.3704 10.9945C16.9201 10.7289 16.4698 10.4607 16.0194 10.1901C15.7543 10.0285 15.4875 9.86864 15.2316 9.6927C15.2012 9.67155 15.17 9.64956 15.1404 9.62672L15.3 9.75022L15.2916 9.74345C15.1227 9.60811 14.9598 9.51169 14.7335 9.51169C14.5244 9.51312 14.3241 9.59628 14.1753 9.74345C14.0276 9.89193 13.9444 10.0929 13.944 10.3026C13.9524 10.4971 14.0149 10.7339 14.1753 10.8608C14.4209 11.0498 14.6772 11.2243 14.9429 11.3835C15.3423 11.6314 15.7459 11.8716 16.1503 12.1118C16.7009 12.4383 17.2528 12.7626 17.8061 13.0846C18.4585 13.4652 19.1121 13.8444 19.7668 14.2222C20.4648 14.6254 21.1639 15.028 21.8642 15.4301C22.5644 15.8321 23.2616 16.2314 23.9557 16.6278L25.8977 17.7359L27.5206 18.6595L28.6825 19.3201C28.8657 19.4242 29.0481 19.5299 29.233 19.6323L29.2558 19.6449C29.4402 19.7508 29.6584 19.7811 29.8646 19.7295C30.0621 19.6726 30.2305 19.5426 30.3358 19.3658C30.5333 18.9911 30.4362 18.5014 30.0529 18.284L30.0554 18.2831Z" fill="#66B3FF"/>
<path d="M25.9652 21.6259L25.5759 21.3976L24.5112 20.7835L22.9271 19.875C22.2786 19.5 21.6313 19.1248 20.9851 18.7492C20.2679 18.3342 19.5519 17.9183 18.837 17.5016C18.1052 17.0764 17.3734 16.6498 16.6416 16.2218C15.9459 15.8147 15.251 15.407 14.5569 14.9987C13.9523 14.6429 13.3489 14.2851 12.7465 13.9253C12.2805 13.6471 11.8177 13.3679 11.3516 13.0795C11.0781 12.9103 10.8019 12.7412 10.5377 12.5618C10.5064 12.5398 10.4752 12.5178 10.4448 12.495L10.6052 12.6185L10.5959 12.6117C10.4271 12.4764 10.2649 12.38 10.0378 12.38C9.82875 12.3816 9.62856 12.4647 9.47968 12.6117C9.33246 12.7605 9.24963 12.9614 9.24915 13.1708C9.25759 13.3662 9.32009 13.6022 9.47968 13.7299C9.73035 13.9221 9.99135 14.1003 10.2615 14.2637C10.677 14.5225 11.0966 14.7754 11.5163 15.0249C12.0893 15.3689 12.6641 15.7109 13.2405 16.051C13.916 16.4519 14.5949 16.8511 15.2771 17.2487C16.0044 17.6739 16.7314 18.0985 17.4581 18.5225C18.1849 18.9466 18.9167 19.3715 19.6535 19.7972C20.3228 20.1863 20.993 20.5748 21.6639 20.9628L23.3603 21.944L24.5745 22.6443C24.7653 22.7543 24.9553 22.866 25.147 22.9742L25.1715 22.9886C25.3563 23.0928 25.5741 23.1213 25.7794 23.0681C25.929 23.0268 26.0632 22.9421 26.165 22.8248C26.2669 22.7075 26.332 22.5627 26.3522 22.4086C26.3724 22.2544 26.3467 22.0977 26.2785 21.9581C26.2103 21.8184 26.1025 21.702 25.9686 21.6234L25.9652 21.6259Z" fill="#66B3FF"/>
<path d="M22.1503 25.0009L21.7442 24.7624L20.6338 24.1094L18.9839 23.1383L16.9574 21.944L14.7283 20.6253C13.9661 20.1742 13.2042 19.7231 12.4426 19.272C11.7181 18.8411 10.9945 18.4095 10.2717 17.977C9.64236 17.6003 9.01414 17.2222 8.38705 16.8427C7.90238 16.5483 7.41856 16.2506 6.93727 15.9545C6.65356 15.7778 6.36817 15.6027 6.0929 15.4124C6.06081 15.3904 6.02872 15.3675 5.99748 15.3438L6.15707 15.4673L6.14693 15.4589C5.97806 15.3235 5.81595 15.2271 5.58881 15.2271C5.37943 15.2271 5.17861 15.3104 5.03055 15.4588C4.88249 15.6071 4.79932 15.8082 4.79932 16.018C4.8086 16.2134 4.87024 16.4502 5.03067 16.5771C5.28715 16.7737 5.55377 16.9567 5.82945 17.1252C6.25923 17.3967 6.69409 17.6623 7.1281 17.9271C7.72423 18.2902 8.32148 18.6511 8.91986 19.0097C9.62575 19.4338 10.3319 19.8567 11.0384 20.2785L13.3182 21.6319C14.0759 22.083 14.8341 22.5319 15.5929 22.9785L17.6971 24.2202L19.4644 25.2606L20.7309 26.0049C20.9302 26.1216 21.1278 26.2409 21.3287 26.3551L21.3541 26.3703C21.7104 26.5792 22.2348 26.4642 22.434 26.0869C22.5357 25.9049 22.5629 25.6905 22.51 25.4887C22.4571 25.287 22.3281 25.1136 22.1503 25.0051V25.0009Z" fill="#66B3FF"/>
<path d="M0.223705 19.6213C0.878938 20.1389 1.62959 20.5466 2.3414 20.9789C3.66031 21.7785 4.98455 22.5699 6.31415 23.3532C7.84922 24.2639 9.38683 25.1712 10.927 26.0751C12.2217 26.8347 13.5164 27.5934 14.8111 28.3513C15.4021 28.6981 15.9932 29.0559 16.591 29.3917C17.0039 29.6234 17.4278 29.8383 17.8457 30.0607C18.3524 30.3297 18.8784 30.6139 19.4306 30.7738C20.005 30.9307 20.6073 30.9561 21.1928 30.8482C22.3885 30.6545 23.4726 29.9313 24.4217 29.2149C25.6883 28.2549 26.8704 27.1849 28.0854 26.1597C30.1609 24.4096 32.4416 22.8609 34.3524 20.9256C35.0279 20.2421 35.7878 19.409 36.0073 18.4396C36.1188 17.9406 36.085 17.4136 35.7988 16.9746C35.4838 16.49 35.0009 16.1457 34.5052 15.864C33.9209 15.5484 33.3193 15.266 32.7033 15.0182C31.962 14.7027 31.262 14.4159 30.475 14.0531C29.6525 13.6834 28.8566 13.2569 28.0931 12.7767C27.8955 12.6498 27.7015 12.5178 27.5113 12.3808L27.3677 12.2751C27.3441 12.2573 27.2073 12.1601 27.3052 12.2286C27.4032 12.2971 27.2487 12.1829 27.2208 12.1634C27.1676 12.1211 27.1144 12.0789 27.0621 12.0332C26.6981 11.731 26.3605 11.3982 26.053 11.0385C26.0142 10.9928 25.9754 10.9463 25.9374 10.8989C25.9213 10.8794 25.9061 10.8583 25.8892 10.8388C25.8327 10.7712 25.9374 10.8972 25.934 10.8964C25.8664 10.8735 25.7499 10.6426 25.7094 10.58C25.5799 10.3858 25.4623 10.1838 25.3573 9.97523C25.3294 9.9211 25.3032 9.86612 25.2779 9.81114L25.2458 9.74008C25.2019 9.6462 25.2188 9.75108 25.2636 9.78407C25.1994 9.73755 25.1597 9.51086 25.1352 9.43727C25.0566 9.19768 24.9959 8.95255 24.9537 8.70392C24.9486 8.6777 24.9461 8.64894 24.9402 8.61934C24.919 8.52883 24.9503 8.69377 24.9495 8.69208C24.9343 8.62779 24.9272 8.56188 24.9283 8.49584C24.9165 8.3622 24.9098 8.22855 24.9089 8.09491C24.9081 7.96127 24.9089 7.84116 24.9174 7.7092C24.9216 7.63815 24.9275 7.5671 24.9342 7.4969C24.9342 7.4656 24.941 7.43515 24.9435 7.4047C24.963 7.20254 24.9241 7.51466 24.9435 7.39709C24.9907 7.10219 25.0544 6.81019 25.1344 6.52248C25.18 6.36261 25.2315 6.20444 25.2872 6.04796C25.3125 5.97775 25.3387 5.90839 25.3649 5.83988L25.4206 5.69947C25.4383 5.65548 25.4645 5.59881 25.4307 5.67494C25.6024 5.28286 25.811 4.90814 26.0539 4.55588C26.0834 4.51274 26.1147 4.4713 26.1459 4.42647C26.1637 4.40109 26.276 4.25138 26.1932 4.36134C26.1105 4.4713 26.2109 4.34019 26.2304 4.31651C26.2681 4.27027 26.3069 4.22375 26.3469 4.17694C26.4865 4.0151 26.6329 3.85975 26.786 3.71088C26.9346 3.56624 27.0908 3.42837 27.2512 3.29726C27.2791 3.27442 27.4201 3.16615 27.3171 3.24313C27.2141 3.3201 27.3652 3.2076 27.3863 3.19237C27.4707 3.12724 27.5636 3.06465 27.6548 3.0029C28.0193 2.75861 28.4024 2.54339 28.8006 2.35921L28.956 2.28901C29.0624 2.24164 29.0463 2.2797 28.9475 2.28901C29.0548 2.27632 29.189 2.19258 29.2921 2.15452C29.5031 2.0767 29.7142 2.00734 29.9329 1.94475C30.162 1.87877 30.3926 1.82238 30.6245 1.77558C30.7342 1.75274 30.844 1.73075 30.9538 1.71129C31.0306 1.69776 31.2831 1.7003 31.3397 1.65039C31.3397 1.65039 31.1708 1.67069 31.2603 1.66139L31.3388 1.65209C31.3996 1.64447 31.4612 1.63855 31.522 1.63179C31.6462 1.61994 31.7694 1.60895 31.8936 1.60133C32.1469 1.58442 32.4002 1.5768 32.6484 1.5768C32.8967 1.5768 33.1441 1.58611 33.3906 1.60303C33.5207 1.61205 33.6507 1.62304 33.7807 1.63601L33.9496 1.65462C34.0298 1.66393 34.2029 1.66562 34.0205 1.66224C34.2789 1.66731 34.5592 1.74682 34.8117 1.80011C35.0642 1.8534 35.3268 1.91599 35.5809 1.9862C35.8506 2.06063 36.1174 2.14381 36.3814 2.23572C36.5055 2.2797 36.6297 2.32453 36.7529 2.3719C36.8194 2.39728 36.8861 2.4235 36.953 2.45057L37.0375 2.48525C37.1785 2.54107 36.9598 2.44972 37.0493 2.48948C37.5837 2.72393 38.1044 2.98854 38.6089 3.28203C38.8757 3.43936 39.1366 3.60487 39.3916 3.77855C39.5123 3.86313 39.6322 3.94772 39.7513 4.0323L39.9202 4.15326C39.9565 4.18117 39.9928 4.20908 40.0299 4.23784C40.127 4.30889 39.9387 4.1651 40.0342 4.23784C41.1445 5.11668 42.0944 6.13339 42.9895 7.22538C43.2405 7.53101 43.4888 7.83805 43.7342 8.14651C43.8541 8.29763 43.9737 8.44988 44.0931 8.60326L44.1674 8.69885C44.1564 8.68531 44.1125 8.62695 44.1674 8.69885C44.2222 8.77074 44.2949 8.86802 44.359 8.9526C44.7593 9.47956 45.1494 10.015 45.5226 10.5597C46.1296 11.429 46.671 12.3425 47.1421 13.2926C47.1649 13.3392 47.4047 13.8721 47.4047 13.8721C47.4047 13.8721 47.3346 13.7029 47.3777 13.8078L47.403 13.8695C47.4224 13.9177 47.441 13.9651 47.4596 14.0133C47.4959 14.1064 47.5305 14.2002 47.5643 14.295C47.6868 14.6374 47.788 14.9872 47.8674 15.3421C47.9037 15.5113 47.9341 15.6805 47.9603 15.8496C47.9713 15.9182 47.9704 16.0662 47.9544 15.798C47.9544 15.8327 47.9628 15.8674 47.967 15.9021C47.9763 15.9867 47.9839 16.0636 47.9907 16.144C48.0149 16.4572 48.0188 16.7717 48.0025 17.0854C47.9946 17.2337 47.9828 17.3818 47.967 17.5295L47.9544 17.6445C47.9493 17.6809 47.9299 17.8332 47.9544 17.6699C47.9789 17.5067 47.9544 17.6437 47.9544 17.6792L47.9341 17.8103C47.8851 18.1157 47.8218 18.4185 47.7509 18.7188C47.6732 19.047 47.5905 19.3751 47.4976 19.6983C47.4672 19.8006 47.4334 19.9021 47.3962 20.0019C47.376 20.0577 47.354 20.1119 47.3337 20.1711C47.2865 20.2937 47.3988 20.0298 47.3228 20.1948C47.2189 20.4223 47.1083 20.6456 46.985 20.863C46.7194 21.324 46.4235 21.7667 46.0993 22.1884C46.0148 22.3001 46.1778 22.0903 46.0545 22.2451L45.9253 22.3787C45.8274 22.4994 45.7283 22.6193 45.6281 22.7382C45.4429 22.9559 45.2541 23.1696 45.0615 23.3794C44.2653 24.2498 43.41 25.0652 42.5343 25.8543C41.7845 26.531 41.0145 27.184 40.2545 27.8429C39.97 28.0891 39.6854 28.3344 39.4102 28.5898C39.2911 28.6998 39.178 28.8165 39.0589 28.9282C39.031 28.9535 38.852 29.0973 38.9525 29.0237C38.8934 29.066 38.8335 29.1083 38.7718 29.1438C38.7102 29.1794 38.6325 29.2242 38.5599 29.2597L38.4687 29.3029C38.6198 29.2343 38.4797 29.2936 38.445 29.3029C38.3175 29.3433 38.1878 29.3766 38.0566 29.4027C38.0102 29.4128 37.9097 29.4103 38.0913 29.4027C38.0625 29.4027 38.0347 29.4086 38.0068 29.4103C37.9511 29.4103 37.8954 29.4179 37.8379 29.4196C37.7138 29.4196 37.5905 29.4145 37.4673 29.4052C37.443 29.3994 37.4179 29.3968 37.393 29.3976C37.393 29.3976 37.5618 29.428 37.4825 29.4086C37.431 29.3967 37.3769 29.3908 37.3254 29.3807C37.1698 29.3487 37.0166 29.3061 36.8669 29.253L36.7825 29.2225C36.6592 29.1785 36.8669 29.2606 36.8931 29.2707L36.8466 29.2487C36.4751 29.0686 35.9761 29.1354 35.7667 29.5329C35.5792 29.8873 35.6527 30.4219 36.0496 30.6139C36.8596 31.0037 37.7789 31.102 38.6528 30.8922C39.6745 30.6385 40.3525 29.8467 41.115 29.1828C42.7454 27.7634 44.408 26.3779 45.8949 24.8046C46.7106 23.9419 47.4891 23.0216 48.1199 22.0133C48.6084 21.2163 48.9686 20.3471 49.1871 19.4377C49.5291 18.0844 49.6879 16.7369 49.4658 15.354C49.1829 13.5904 48.2963 11.9435 47.3422 10.4591C46.5823 9.28079 45.7379 8.16089 44.8716 7.06382C43.9478 5.89993 43.0139 4.74197 41.8977 3.75233C40.0477 2.108 37.8228 0.856142 35.396 0.3148C33.3391 -0.145342 31.1362 -0.127579 29.1257 0.54487C27.3112 1.15219 25.6781 2.26533 24.61 3.87413C23.9775 4.83865 23.5658 5.93135 23.4043 7.07397C23.2261 8.26801 23.3983 9.48816 23.8999 10.5859C24.7291 12.4028 26.4389 13.7054 28.1412 14.646C29.2388 15.2542 30.394 15.7456 31.5474 16.2303L31.9366 16.3952C32.119 16.473 32.3014 16.5509 32.4821 16.6312C32.7886 16.7665 33.0926 16.9061 33.3906 17.0592C33.6347 17.1816 33.8708 17.3195 34.0974 17.472C34.1244 17.4906 34.2705 17.6183 34.1886 17.5346C34.1067 17.4508 34.2342 17.5752 34.2612 17.5997C34.2882 17.6242 34.3296 17.6631 34.3625 17.697C34.3828 17.7173 34.4022 17.7418 34.4233 17.7621C34.5018 17.8365 34.3836 17.7291 34.3811 17.7021C34.3811 17.7291 34.4444 17.7934 34.4596 17.8205C34.4748 17.8475 34.4782 17.856 34.4883 17.8721C34.5542 17.9702 34.4469 17.8036 34.4562 17.7875C34.4634 17.8244 34.4744 17.8604 34.4892 17.8949C34.5339 17.9922 34.4731 17.8188 34.4807 17.7951C34.4795 17.8186 34.4812 17.8422 34.4858 17.8653C34.4858 17.9051 34.4858 17.944 34.4858 17.9829C34.4858 18.103 34.4199 18.0675 34.4968 17.9279C34.4707 18.0112 34.4523 18.0967 34.4419 18.1833C34.4275 18.2265 34.4089 18.2679 34.3963 18.3111C34.3895 18.3331 34.4807 18.1368 34.403 18.2899C34.3574 18.3813 34.3119 18.4709 34.2603 18.5589C34.2088 18.6469 34.1447 18.745 34.0822 18.8346C34.0543 18.8761 34.0256 18.9192 33.9977 18.9556C33.9804 18.9858 33.9601 19.0142 33.9369 19.0402C33.9564 19.036 34.0408 18.9099 33.9648 19.003C33.2049 19.9334 32.2854 20.7327 31.3616 21.5016C30.2639 22.4134 29.1367 23.283 28.0272 24.1779C26.8113 25.159 25.6494 26.2037 24.4454 27.2001C24.312 27.3129 24.1774 27.4225 24.0418 27.5291C23.9708 27.5866 23.8999 27.6433 23.8281 27.6983L23.7378 27.7702C23.8222 27.7034 23.7217 27.782 23.6871 27.8082C23.4287 28.0053 23.1653 28.1965 22.8959 28.3767C22.6426 28.5458 22.3758 28.7108 22.1047 28.8571C21.9773 28.9248 21.8515 28.989 21.718 29.0491C21.6471 29.0812 21.5593 29.1109 21.6885 29.0635C21.6159 29.0906 21.5441 29.1202 21.4715 29.1481C21.3474 29.1921 21.2224 29.2327 21.0949 29.2631C21.0442 29.2758 20.7571 29.3722 20.7217 29.3384C20.7217 29.3384 20.9294 29.3189 20.7732 29.3291L20.6938 29.3358C20.6322 29.3409 20.5705 29.3435 20.5089 29.3443C20.4709 29.3443 20.1399 29.3325 20.1407 29.3265C20.1416 29.3206 20.3459 29.3629 20.1931 29.3333L20.1146 29.3189C20.0529 29.3071 19.9913 29.2927 19.9305 29.2775C19.8061 29.2435 19.6835 29.2032 19.5632 29.1565C19.548 29.1498 19.4577 29.11 19.5472 29.1498C19.6367 29.1895 19.5193 29.1362 19.4957 29.1252L19.3133 29.0406C19.1697 28.9713 19.0267 28.9 18.8843 28.8266C18.2257 28.4883 17.5713 28.139 16.9321 27.7651C15.9527 27.1933 14.974 26.6207 13.9963 26.0472C12.5107 25.176 11.0266 24.3033 9.54387 23.4293C8.03639 22.5406 6.53087 21.6482 5.02733 20.7522C3.96004 20.1144 2.89107 19.4792 1.83898 18.8177C1.70219 18.7331 1.56542 18.6486 1.43032 18.5564C1.38303 18.5251 1.33491 18.4929 1.28762 18.4599L1.23273 18.421C1.12887 18.3517 1.36023 18.5208 1.34503 18.5056C1.02164 18.2519 0.540349 18.1673 0.228776 18.5056C-0.0321349 18.7907 -0.117416 19.3515 0.228776 19.6238L0.223705 19.6213Z" fill="#66B3FF"/>
<path d="M44.8868 14.4032C44.8868 14.4032 44.4714 13.5117 43.1913 13.4872C43.1913 13.4872 45.9169 13.1302 46.0377 14.8904L44.8868 14.4032Z" fill="#66B3FF"/>
<path d="M55.7935 21.0313C55.6515 21.0298 55.5158 20.9726 55.4154 20.8721C55.3151 20.7715 55.258 20.6356 55.2565 20.4934V10.915C55.2578 10.7727 55.3148 10.6366 55.4152 10.536C55.5156 10.4354 55.6515 10.3783 55.7935 10.377H58.4803C60.7086 10.377 61.7041 11.4851 61.7041 13.1945C61.7041 14.24 61.0565 15.0943 60.1716 15.3481C61.3089 15.6331 62.198 16.4561 62.198 17.9922C62.198 19.8285 61.0438 21.0313 58.9582 21.0313H55.7935ZM56.3314 15.0309H58.4642C59.871 15.0309 60.614 14.3026 60.614 13.1945C60.614 12.0552 59.9343 11.3582 58.4642 11.3582H56.3314V15.0309ZM56.3314 20.0501H58.9388C60.3742 20.0501 61.1037 19.2745 61.1037 17.9922C61.1037 16.6938 60.2822 15.9495 58.9388 15.9495H56.3314V20.0501Z" fill="#5B5B5B"/>
<path d="M64.7388 14.2239V18.3525C64.7388 19.3819 65.0706 20.2683 66.6665 20.2683C68.2623 20.2683 68.595 19.3819 68.595 18.3525V14.2239C68.5958 14.1563 68.6099 14.0895 68.6365 14.0273C68.6632 13.9651 68.7018 13.9088 68.7502 13.8617C68.7986 13.8145 68.8558 13.7774 68.9186 13.7525C68.9814 13.7275 69.0485 13.7153 69.116 13.7164C69.1815 13.7172 69.2462 13.731 69.3064 13.7569C69.3666 13.7829 69.421 13.8206 69.4666 13.8678C69.5121 13.915 69.5479 13.9708 69.5717 14.0319C69.5956 14.093 69.6072 14.1583 69.6057 14.2239V18.3525C69.6057 19.8564 69.116 21.2335 66.6665 21.2335C64.233 21.2335 63.7272 19.8564 63.7272 18.3525V14.2239C63.7262 14.157 63.7386 14.0905 63.7637 14.0285C63.7888 13.9665 63.8261 13.9101 63.8733 13.8628C63.9206 13.8154 63.9768 13.7781 64.0388 13.7529C64.1007 13.7278 64.167 13.7154 64.2339 13.7164C64.3679 13.7169 64.4964 13.7705 64.591 13.8657C64.6856 13.9608 64.7388 14.0896 64.7388 14.2239Z" fill="#5B5B5B"/>
<path d="M71.3916 11.6272C71.3916 11.1687 71.6128 10.9945 71.9928 10.9945C72.3728 10.9945 72.5932 11.1687 72.5932 11.6272C72.5932 12.0078 72.3719 12.2294 71.9928 12.2294C71.6137 12.2294 71.3916 12.0086 71.3916 11.6272Z" fill="#66B3FF"/>
<path d="M75.5628 10.2662V19.3058C75.5628 19.9393 75.7689 20.2083 76.1953 20.2083C76.2592 20.2056 76.323 20.2159 76.3829 20.2385C76.4428 20.2612 76.4975 20.2957 76.5437 20.3401C76.5899 20.3845 76.6266 20.4377 76.6518 20.4967C76.6769 20.5557 76.6898 20.6191 76.6898 20.6832C76.6898 20.7474 76.6769 20.8108 76.6518 20.8698C76.6266 20.9288 76.5899 20.982 76.5437 21.0264C76.4975 21.0708 76.4428 21.1053 76.3829 21.128C76.323 21.1506 76.2592 21.1609 76.1953 21.1582C75.1364 21.1582 74.5521 20.5246 74.5521 19.3058V10.2662C74.5553 10.1326 74.6098 10.0054 74.7041 9.91091C74.7984 9.81642 74.9254 9.76192 75.0587 9.7587C75.1927 9.75937 75.3209 9.81313 75.4153 9.90824C75.5098 10.0033 75.5628 10.132 75.5628 10.2662Z" fill="#5B5B5B"/>
<path d="M82.8649 14.6511V10.2662C82.8649 10.1316 82.9183 10.0025 83.0133 9.90734C83.1083 9.81217 83.2372 9.7587 83.3715 9.7587C83.5059 9.7587 83.6348 9.81217 83.7298 9.90734C83.8248 10.0025 83.8782 10.1316 83.8782 10.2662V18.1182C83.8782 20.2083 82.5829 21.2369 80.781 21.2369C78.7418 21.2369 77.5411 20.018 77.5411 17.4221C77.5411 14.8262 78.6785 13.6225 80.7177 13.6225C81.7267 13.6225 82.5018 14.1444 82.8649 14.6511ZM82.8649 15.9334C82.8649 15.9334 82.2646 14.5403 80.7793 14.5403C79.3439 14.5403 78.551 15.4707 78.551 17.4221C78.551 19.4005 79.3253 20.3191 80.7793 20.3191C81.9961 20.3191 82.8649 19.6221 82.8649 18.1199V15.9334Z" fill="#5B5B5B"/>
<path d="M88.7122 13.6225C91.2411 13.6225 91.7308 15.6331 91.7308 16.709C91.7308 17.1683 91.7308 17.724 91.0993 17.724H86.4839C86.4839 19.2914 87.3849 20.3047 88.871 20.3047C89.7871 20.3047 90.325 19.9562 90.7674 19.6238C90.8483 19.5598 90.949 19.5263 91.052 19.5291C91.1734 19.5293 91.2898 19.5778 91.3756 19.6639C91.4614 19.75 91.5096 19.8667 91.5096 19.9884C91.5093 20.0581 91.4936 20.1269 91.4635 20.1898C91.4334 20.2527 91.3897 20.3081 91.3357 20.3521C91.0993 20.5898 90.2768 21.2385 88.871 21.2385C86.7685 21.2385 85.4572 20.0831 85.4572 17.4238C85.4572 14.9835 86.6579 13.6225 88.7122 13.6225ZM88.7122 14.5403C87.3376 14.5403 86.5793 15.4267 86.4839 16.8359H90.7353C90.7353 15.6965 90.3393 14.5403 88.7122 14.5403Z" fill="#5B5B5B"/>
<path d="M94.3079 14.92C94.6237 14.1918 95.4141 13.6513 96.5033 13.6513C96.6298 13.6565 96.7493 13.7106 96.837 13.8021C96.9246 13.8936 96.9735 14.0155 96.9735 14.1423C96.9735 14.2691 96.9246 14.391 96.837 14.4825C96.7493 14.574 96.6298 14.628 96.5033 14.6333C95.0493 14.6333 94.3079 15.6483 94.3079 17.1023V20.649C94.3079 20.7836 94.2546 20.9127 94.1595 21.0078C94.0645 21.103 93.9357 21.1565 93.8013 21.1565C93.6669 21.1565 93.5381 21.103 93.4431 21.0078C93.3481 20.9127 93.2947 20.7836 93.2947 20.649V14.2205C93.2947 14.0859 93.3481 13.9568 93.4431 13.8617C93.5381 13.7665 93.6669 13.713 93.8013 13.713C93.9357 13.713 94.0645 13.7665 94.1595 13.8617C94.2546 13.9568 94.3079 14.0859 94.3079 14.2205V14.92Z" fill="#5B5B5B"/>
<path d="M98.8269 15.3794C98.669 15.5536 98.5584 15.601 98.4157 15.601C98.2941 15.6007 98.1776 15.5523 98.0917 15.4662C98.0058 15.3801 97.9574 15.2634 97.9572 15.1417C97.957 15.0462 97.9846 14.9527 98.0365 14.8727C98.479 14.1766 99.3327 13.6225 100.66 13.6225C102.493 13.6225 103.505 14.6984 103.505 16.314V20.6676C103.505 20.7977 103.453 20.9225 103.361 21.0145C103.269 21.1065 103.145 21.1582 103.015 21.1582C102.885 21.1582 102.761 21.1065 102.669 21.0145C102.577 20.9225 102.525 20.7977 102.525 20.6676V20.0975C102.13 20.8418 101.213 21.2368 100.265 21.2368C98.5896 21.2368 97.5308 20.4299 97.5308 18.9734C97.5308 17.5802 98.5896 16.7412 100.296 16.7412H102.525V16.3182C102.525 15.2415 101.813 14.5766 100.66 14.5766C99.8224 14.5724 99.3166 14.8253 98.8269 15.3794ZM102.525 18.2925V17.6276H100.296C99.2693 17.6276 98.5584 18.0505 98.5584 18.9734C98.5584 19.7964 99.1266 20.3191 100.359 20.3191C101.466 20.3191 102.525 19.6382 102.525 18.2925Z" fill="#66B3FF"/>
<path d="M106.413 10.2662V19.3058C106.413 19.9393 106.618 20.2083 107.044 20.2083C107.108 20.2056 107.172 20.2159 107.232 20.2385C107.292 20.2612 107.347 20.2957 107.393 20.3401C107.439 20.3845 107.476 20.4377 107.501 20.4967C107.526 20.5557 107.539 20.6191 107.539 20.6832C107.539 20.7474 107.526 20.8108 107.501 20.8698C107.476 20.9288 107.439 20.982 107.393 21.0264C107.347 21.0708 107.292 21.1053 107.232 21.128C107.172 21.1506 107.108 21.1609 107.044 21.1582C105.986 21.1582 105.401 20.5246 105.401 19.3058V10.2662C105.405 10.1327 105.459 10.0056 105.553 9.91114C105.648 9.81669 105.775 9.76212 105.908 9.7587C106.042 9.75915 106.17 9.81281 106.265 9.90794C106.36 10.0031 106.413 10.1319 106.413 10.2662Z" fill="#66B3FF"/>
<path d="M109.874 10.2662V19.3058C109.874 19.9393 110.079 20.2083 110.505 20.2083C110.569 20.2056 110.633 20.2159 110.693 20.2385C110.753 20.2612 110.808 20.2957 110.854 20.3401C110.9 20.3845 110.937 20.4377 110.962 20.4967C110.987 20.5557 111 20.6191 111 20.6832C111 20.7474 110.987 20.8108 110.962 20.8698C110.937 20.9288 110.9 20.982 110.854 21.0264C110.808 21.0708 110.753 21.1053 110.693 21.128C110.633 21.1506 110.569 21.1609 110.505 21.1582C109.447 21.1582 108.862 20.5246 108.862 19.3058V10.2662C108.866 10.1327 108.92 10.0056 109.014 9.91114C109.109 9.81669 109.236 9.76212 109.369 9.7587C109.503 9.75915 109.631 9.81281 109.726 9.90794C109.821 10.0031 109.874 10.1319 109.874 10.2662Z" fill="#66B3FF"/>
<path d="M72.4986 20.6515C72.4986 20.7861 72.4452 20.9152 72.3502 21.0104C72.2552 21.1056 72.1263 21.159 71.992 21.159C71.8576 21.159 71.7287 21.1056 71.6337 21.0104C71.5387 20.9152 71.4854 20.7861 71.4854 20.6515V14.2231C71.4854 14.0885 71.5387 13.9594 71.6337 13.8642C71.7287 13.769 71.8576 13.7156 71.992 13.7156C72.1263 13.7156 72.2552 13.769 72.3502 13.8642C72.4452 13.9594 72.4986 14.0885 72.4986 14.2231V20.6515Z" fill="#5B5B5B"/>
</svg>
